<?xml version="1.0" encoding="UTF-8" standalone="no"?>
<svg
   width="3735.7917"
   height="1727.8396"
   xml:space="preserve"
   overflow="hidden"
   version="1.1"
   id="svg79"
   sodipodi:docname="Datamap.svg"
   inkscape:version="1.4.2 (f4327f4, 2025-05-13)"
   inkscape:export-filename="Datamap.png"
   inkscape:export-xdpi="96"
   inkscape:export-ydpi="96"
   xmlns:inkscape="http://www.inkscape.org/namespaces/inkscape"
   xmlns:sodipodi="http://sodipodi.sourceforge.net/DTD/sodipodi-0.dtd"
   xmlns="http://www.w3.org/2000/svg"
   xmlns:svg="http://www.w3.org/2000/svg"><sodipodi:namedview
     id="namedview79"
     pagecolor="#ffffff"
     bordercolor="#000000"
     borderopacity="0.25"
     inkscape:showpageshadow="2"
     inkscape:pageopacity="0.0"
     inkscape:pagecheckerboard="0"
     inkscape:deskcolor="#d1d1d1"
     showguides="true"
     inkscape:zoom="0.45727248"
     inkscape:cx="778.52925"
     inkscape:cy="534.69214"
     inkscape:window-width="2560"
     inkscape:window-height="1377"
     inkscape:window-x="-8"
     inkscape:window-y="-8"
     inkscape:window-maximized="1"
     inkscape:current-layer="svg79" /><defs
     id="defs1"><inkscape:path-effect
       effect="bspline"
       id="path-effect127"
       is_visible="true"
       lpeversion="1.3"
       weight="33.333333"
       steps="2"
       helper_size="0"
       apply_no_weight="true"
       apply_with_weight="true"
       only_selected="false"
       uniform="false" /><inkscape:path-effect
       effect="bspline"
       id="path-effect125"
       is_visible="true"
       lpeversion="1.3"
       weight="33.333333"
       steps="2"
       helper_size="0"
       apply_no_weight="true"
       apply_with_weight="true"
       only_selected="false"
       uniform="false" /><inkscape:path-effect
       effect="bspline"
       id="path-effect122"
       is_visible="true"
       lpeversion="1.3"
       weight="33.333333"
       steps="2"
       helper_size="0"
       apply_no_weight="true"
       apply_with_weight="true"
       only_selected="false"
       uniform="false" /><inkscape:path-effect
       effect="bspline"
       id="path-effect120"
       is_visible="true"
       lpeversion="1.3"
       weight="33.333333"
       steps="2"
       helper_size="0"
       apply_no_weight="true"
       apply_with_weight="true"
       only_selected="false"
       uniform="false" /><inkscape:path-effect
       effect="bspline"
       id="path-effect118"
       is_visible="true"
       lpeversion="1.3"
       weight="33.333333"
       steps="2"
       helper_size="0"
       apply_no_weight="true"
       apply_with_weight="true"
       only_selected="false"
       uniform="false" /><marker
       style="overflow:visible"
       id="ConcaveTriangle"
       refX="0"
       refY="0"
       orient="auto-start-reverse"
       inkscape:stockid="Concave triangle arrow"
       markerWidth="1"
       markerHeight="1"
       viewBox="0 0 1 1"
       inkscape:isstock="true"
       inkscape:collect="always"
       preserveAspectRatio="xMidYMid"><path
         transform="scale(0.7)"
         d="M -2,-4 9,0 -2,4 c 2,-2.33 2,-5.66 0,-8 z"
         style="fill:context-stroke;fill-rule:evenodd;stroke:none"
         id="path115" /></marker><inkscape:path-effect
       effect="bspline"
       id="path-effect114"
       is_visible="true"
       lpeversion="1.3"
       weight="33.333333"
       steps="2"
       helper_size="0"
       apply_no_weight="true"
       apply_with_weight="true"
       only_selected="false"
       uniform="false" /></defs><rect
     x="1171.5"
     y="26.745901"
     width="2562"
     height="1445"
     stroke="#8ca198"
     stroke-width="4.58333"
     stroke-miterlimit="8"
     fill="#e5f1ec"
     id="rect2" /><rect
     x="1171.5"
     y="1317.7458"
     width="527"
     height="154"
     stroke="#8ca198"
     stroke-width="4.58333"
     stroke-miterlimit="8"
     fill="#bfdccf"
     id="rect3" /><text
     fill="#e05858"
     font-family="Calibri, Calibri_MSFontService, sans-serif"
     font-weight="400"
     font-size="83px"
     id="text3"
     x="1219.95"
     y="1422.2458">isa_datamap</text><g
     id="g83"
     transform="translate(0,2.0792308)"><path
       d="m 1250.5,305.167 c 0,-10.862 8.81,-19.667 19.67,-19.667 h 650.66 c 10.86,0 19.67,8.805 19.67,19.667 v 78.667 c 0,10.861 -8.81,19.667 -19.67,19.667 h -650.66 c -10.86,0 -19.67,-8.806 -19.67,-19.667 z"
       stroke="#8ca198"
       stroke-width="4.58333"
       stroke-miterlimit="8"
       fill="#f2f8f5"
       fill-rule="evenodd"
       id="path4" /><text
       fill="#5f968e"
       font-family="Calibri, Calibri_MSFontService, sans-serif"
       font-weight="400"
       font-size="83px"
       id="text4"
       x="1304.23"
       y="372.34277">result1.csv#col=1</text></g><g
     id="g84"
     transform="translate(0,2.9125675)"><path
       d="m 1250.5,465.167 c 0,-10.862 8.81,-19.667 19.67,-19.667 h 650.66 c 10.86,0 19.67,8.805 19.67,19.667 v 78.663 c 0,10.86 -8.81,19.67 -19.67,19.67 h -650.66 c -10.86,0 -19.67,-8.81 -19.67,-19.67 z"
       stroke="#8ca198"
       stroke-width="4.58333"
       stroke-miterlimit="8"
       fill="#f2f8f5"
       fill-rule="evenodd"
       id="path5" /><text
       fill="#5f968e"
       font-family="Calibri, Calibri_MSFontService, sans-serif"
       font-weight="400"
       font-size="83px"
       id="text5"
       x="1304.2908"
       y="532.34229">result1.csv#col=2</text></g><g
     id="g85"
     transform="translate(0,0.74590077)"><path
       d="m 1250.5,628.17 c 0,-10.86 8.81,-19.67 19.67,-19.67 h 650.66 c 10.86,0 19.67,8.81 19.67,19.67 v 78.66 c 0,10.86 -8.81,19.67 -19.67,19.67 h -650.66 c -10.86,0 -19.67,-8.81 -19.67,-19.67 z"
       stroke="#8ca198"
       stroke-width="4.58333"
       stroke-miterlimit="8"
       fill="#f2f8f5"
       fill-rule="evenodd"
       id="path6" /><text
       fill="#5f968e"
       font-family="Calibri, Calibri_MSFontService, sans-serif"
       font-weight="400"
       font-size="83px"
       id="text6"
       x="1304.4934"
       y="695.34229">result1.csv#col=3</text></g><g
     id="g86"
     transform="translate(0,1.5792308)"><path
       d="m 1250.5,788.33 c 0,-10.95 8.88,-19.83 19.83,-19.83 h 650.34 c 10.95,0 19.83,8.88 19.83,19.83 v 79.34 c 0,10.95 -8.88,19.83 -19.83,19.83 h -650.34 c -10.95,0 -19.83,-8.88 -19.83,-19.83 z"
       stroke="#8ca198"
       stroke-width="4.58333"
       stroke-miterlimit="8"
       fill="#f2f8f5"
       fill-rule="evenodd"
       id="path7" /><text
       fill="#5f968e"
       font-family="Calibri, Calibri_MSFontService, sans-serif"
       font-weight="400"
       font-size="83px"
       id="text7"
       x="1304.23"
       y="855.84229">result2.csv#col=1</text></g><g
     id="g87"
     transform="translate(0,2.4125675)"><path
       d="m 1250.5,949.17 c 0,-10.86 8.81,-19.67 19.67,-19.67 h 650.66 c 10.86,0 19.67,8.81 19.67,19.67 v 78.66 c 0,10.86 -8.81,19.67 -19.67,19.67 h -650.66 c -10.86,0 -19.67,-8.81 -19.67,-19.67 z"
       stroke="#8ca198"
       stroke-width="4.58333"
       stroke-miterlimit="8"
       fill="#f2f8f5"
       fill-rule="evenodd"
       id="path8" /><text
       fill="#5f968e"
       font-family="Calibri, Calibri_MSFontService, sans-serif"
       font-weight="400"
       font-size="83px"
       id="text8"
       x="1304.2908"
       y="1016.3423">result2.csv#col=2</text></g><g
     id="g82"
     transform="translate(0,0.24590077)"><path
       d="m 1250.5,145.167 c 0,-10.862 8.81,-19.667 19.67,-19.667 h 650.66 c 10.86,0 19.67,8.805 19.67,19.667 v 78.666 c 0,10.862 -8.81,19.667 -19.67,19.667 h -650.66 c -10.86,0 -19.67,-8.805 -19.67,-19.667 z"
       stroke="#446d67"
       stroke-width="4.58333"
       stroke-miterlimit="8"
       fill="#bed6d2"
       fill-rule="evenodd"
       id="path3" /><text
       fill="#e05858"
       font-family="Calibri, Calibri_MSFontService, sans-serif"
       font-weight="400"
       font-size="83px"
       id="text9"
       x="1516.7554"
       y="210.33618">Data</text></g><rect
     x="0"
     y="414.24591"
     width="174"
     height="144"
     fill="#bfdccf"
     id="rect9" /><rect
     x="182.5"
     y="414.24591"
     width="174"
     height="144"
     fill="#bfdccf"
     id="rect10" /><rect
     x="365"
     y="414.24591"
     width="173"
     height="144"
     fill="#bfdccf"
     id="rect11" /><rect
     x="0"
     y="566.24591"
     width="174"
     height="145"
     fill="#bfdccf"
     id="rect12" /><rect
     x="182.5"
     y="566.24591"
     width="174"
     height="145"
     fill="#bfdccf"
     id="rect13" /><rect
     x="365"
     y="564.74591"
     width="173"
     height="145"
     fill="#bfdccf"
     id="rect14" /><rect
     x="0"
     y="716.24591"
     width="174"
     height="144"
     fill="#bfdccf"
     id="rect15" /><rect
     x="182.5"
     y="716.24591"
     width="174"
     height="144"
     fill="#bfdccf"
     id="rect16" /><rect
     x="365"
     y="716.24591"
     width="173"
     height="144"
     fill="#bfdccf"
     id="rect17" /><rect
     x="4"
     y="318.24591"
     width="174"
     height="71.000198"
     fill="#5f968e"
     id="rect18" /><text
     fill="#ffffff"
     font-family="Calibri, Calibri_MSFontService, sans-serif"
     font-weight="400"
     font-size="64px"
     id="text18"
     x="63.198002"
     y="375.24591">ID</text><rect
     x="361"
     y="318.24591"
     width="174"
     height="71.000198"
     fill="#5f968e"
     id="rect19" /><rect
     x="182.5"
     y="318.24591"
     width="174"
     height="71.000198"
     fill="#5f968e"
     id="rect20" /><text
     fill="#5f968e"
     font-family="Calibri, Calibri_MSFontService, sans-serif"
     font-weight="400"
     font-size="64px"
     id="text20"
     x="310.922"
     y="929.24591">result1.csv</text><text
     fill="#5f968e"
     font-family="Calibri, Calibri_MSFontService, sans-serif"
     font-weight="400"
     font-size="64px"
     id="text21"
     x="443.245"
     y="1727.2458">result2.csv</text><g
     id="g88"
     transform="translate(-2,0.24590077)"><path
       d="m 1252.5,1112.17 c 0,-10.86 8.81,-19.67 19.67,-19.67 h 650.66 c 10.86,0 19.67,8.81 19.67,19.67 v 78.66 c 0,10.86 -8.81,19.67 -19.67,19.67 h -650.66 c -10.86,0 -19.67,-8.81 -19.67,-19.67 z"
       stroke="#8ca198"
       stroke-width="4.58333"
       stroke-miterlimit="8"
       fill="#f2f8f5"
       fill-rule="evenodd"
       id="path21" /><text
       fill="#5f968e"
       font-family="Calibri, Calibri_MSFontService, sans-serif"
       font-weight="400"
       font-size="83px"
       id="text22"
       x="1306.4934"
       y="1179.3423">result2.csv#col=3</text></g><rect
     x="123"
     y="1214.2458"
     width="174"
     height="144"
     fill="#bfdccf"
     id="rect22" /><rect
     x="306"
     y="1214.2458"
     width="174"
     height="144"
     fill="#bfdccf"
     id="rect23" /><rect
     x="488"
     y="1214.2458"
     width="174"
     height="144"
     fill="#bfdccf"
     id="rect24" /><rect
     x="123"
     y="1364.7458"
     width="174"
     height="145"
     fill="#bfdccf"
     id="rect25" /><rect
     x="305.5"
     y="1364.7458"
     width="174"
     height="145"
     fill="#bfdccf"
     id="rect26" /><rect
     x="488"
     y="1364.7458"
     width="174"
     height="145"
     fill="#bfdccf"
     id="rect27" /><rect
     x="123"
     y="1516.2458"
     width="174"
     height="144"
     fill="#bfdccf"
     id="rect28" /><rect
     x="305.5"
     y="1516.2458"
     width="174"
     height="144"
     fill="#bfdccf"
     id="rect29" /><rect
     x="488"
     y="1516.2458"
     width="174"
     height="144"
     fill="#bfdccf"
     id="rect30" /><rect
     x="128"
     y="1118.2458"
     width="174"
     height="70.999802"
     fill="#5f968e"
     id="rect31" /><text
     fill="#ffffff"
     font-family="Calibri, Calibri_MSFontService, sans-serif"
     font-weight="400"
     font-size="64px"
     id="text31"
     x="186.855"
     y="1175.2458">ID</text><rect
     x="485"
     y="1118.2458"
     width="174"
     height="70.999802"
     fill="#5f968e"
     id="rect32" /><rect
     x="307"
     y="1118.2458"
     width="173"
     height="70.999802"
     fill="#5f968e"
     id="rect33" /><g
     id="g89"
     transform="translate(-0.66666667,4.0792308)"><path
       d="m 1995.5,303.167 c 0,-10.862 8.81,-19.667 19.67,-19.667 h 442.66 c 10.86,0 19.67,8.805 19.67,19.667 v 78.666 c 0,10.862 -8.81,19.667 -19.67,19.667 h -442.66 c -10.86,0 -19.67,-8.805 -19.67,-19.667 z"
       stroke="#8ca198"
       stroke-width="4.58333"
       stroke-miterlimit="8"
       fill="#f2f8f5"
       fill-rule="evenodd"
       id="path34" /><text
       fill="#5f968e"
       font-family="Calibri, Calibri_MSFontService, sans-serif"
       font-weight="400"
       font-size="83px"
       id="text34"
       x="2101.8884"
       y="368.70093">Gene ID</text></g><g
     id="g90"
     transform="translate(-0.66666667,4.9125675)"><path
       d="m 1995.5,463.333 c 0,-10.953 8.88,-19.833 19.83,-19.833 h 442.34 c 10.95,0 19.83,8.88 19.83,19.833 v 79.337 c 0,10.95 -8.88,19.83 -19.83,19.83 h -442.34 c -10.95,0 -19.83,-8.88 -19.83,-19.83 z"
       stroke="#8ca198"
       stroke-width="4.58333"
       stroke-miterlimit="8"
       fill="#f2f8f5"
       fill-rule="evenodd"
       id="path35" /><text
       fill="#5f968e"
       font-family="Calibri, Calibri_MSFontService, sans-serif"
       font-weight="400"
       font-size="83px"
       id="text35"
       x="2046.6699"
       y="530.84229">Abundance</text></g><g
     id="g91"
     transform="translate(-0.66666667,1.7459008)"><path
       d="m 1995.5,627.17 c 0,-10.86 8.81,-19.67 19.67,-19.67 h 442.66 c 10.86,0 19.67,8.81 19.67,19.67 v 78.66 c 0,10.86 -8.81,19.67 -19.67,19.67 h -442.66 c -10.86,0 -19.67,-8.81 -19.67,-19.67 z"
       stroke="#8ca198"
       stroke-width="4.58333"
       stroke-miterlimit="8"
       fill="#f2f8f5"
       fill-rule="evenodd"
       id="path36" /><text
       fill="#5f968e"
       font-family="Calibri, Calibri_MSFontService, sans-serif"
       font-weight="400"
       font-size="83px"
       id="text36"
       x="2046.6699"
       y="694.34229">Abundance</text></g><g
     id="g92"
     transform="translate(-0.66666667,3.0792308)"><path
       d="m 1995.5,787.17 c 0,-10.86 8.81,-19.67 19.67,-19.67 h 442.66 c 10.86,0 19.67,8.81 19.67,19.67 v 78.66 c 0,10.86 -8.81,19.67 -19.67,19.67 h -442.66 c -10.86,0 -19.67,-8.81 -19.67,-19.67 z"
       stroke="#8ca198"
       stroke-width="4.58333"
       stroke-miterlimit="8"
       fill="#f2f8f5"
       fill-rule="evenodd"
       id="path37" /><text
       fill="#5f968e"
       font-family="Calibri, Calibri_MSFontService, sans-serif"
       font-weight="400"
       font-size="83px"
       id="text37"
       x="2101.8884"
       y="852.70093">Gene ID</text></g><g
     id="g93"
     transform="translate(-0.66666667,4.4125675)"><path
       d="m 1995.5,947.17 c 0,-10.86 8.81,-19.67 19.67,-19.67 h 442.66 c 10.86,0 19.67,8.81 19.67,19.67 v 78.66 c 0,10.86 -8.81,19.67 -19.67,19.67 h -442.66 c -10.86,0 -19.67,-8.81 -19.67,-19.67 z"
       stroke="#8ca198"
       stroke-width="4.58333"
       stroke-miterlimit="8"
       fill="#f2f8f5"
       fill-rule="evenodd"
       id="path38" /><text
       fill="#5f968e"
       font-family="Calibri, Calibri_MSFontService, sans-serif"
       font-weight="400"
       font-size="83px"
       id="text38"
       x="2046.6699"
       y="1014.3423">Abundance</text></g><g
     id="g81"
     transform="translate(-0.66666667,2.2459008)"><path
       d="m 1995.5,143.167 c 0,-10.862 8.81,-19.667 19.67,-19.667 h 442.66 c 10.86,0 19.67,8.805 19.67,19.667 v 78.666 c 0,10.862 -8.81,19.667 -19.67,19.667 h -442.66 c -10.86,0 -19.67,-8.805 -19.67,-19.667 z"
       stroke="#446d67"
       stroke-width="4.58333"
       stroke-miterlimit="8"
       fill="#bed6d2"
       fill-rule="evenodd"
       id="path33" /><text
       fill="#e05858"
       font-family="Calibri, Calibri_MSFontService, sans-serif"
       font-weight="400"
       font-size="83px"
       id="text39"
       x="2053.4177"
       y="203.35132">Explication</text></g><g
     id="g94"
     transform="translate(-0.66666667,3.7459008)"><path
       d="m 1995.5,1108.33 c 0,-10.95 8.88,-19.83 19.83,-19.83 h 442.34 c 10.95,0 19.83,8.88 19.83,19.83 v 79.34 c 0,10.95 -8.88,19.83 -19.83,19.83 h -442.34 c -10.95,0 -19.83,-8.88 -19.83,-19.83 z"
       stroke="#8ca198"
       stroke-width="4.58333"
       stroke-miterlimit="8"
       fill="#f2f8f5"
       fill-rule="evenodd"
       id="path39" /><text
       fill="#5f968e"
       font-family="Calibri, Calibri_MSFontService, sans-serif"
       font-weight="400"
       font-size="83px"
       id="text40"
       x="2046.6699"
       y="1175.8423">Abundance</text></g><g
     id="g95"
     transform="translate(-2.3333333,3.0792308)"><path
       d="m 2533.5,304.167 c 0,-10.862 8.81,-19.667 19.67,-19.667 h 441.66 c 10.87,0 19.67,8.805 19.67,19.667 v 78.666 c 0,10.862 -8.8,19.667 -19.67,19.667 h -441.66 c -10.86,0 -19.67,-8.805 -19.67,-19.667 z"
       stroke="#8ca198"
       stroke-width="4.58333"
       stroke-miterlimit="8"
       fill="#f2f8f5"
       fill-rule="evenodd"
       id="path45" /><text
       fill="#5f968e"
       font-family="Calibri, Calibri_MSFontService, sans-serif"
       font-weight="400"
       font-size="83px"
       id="text45"
       x="2678.5581"
       y="362.99365">string</text></g><g
     id="g96"
     transform="translate(-2.3333333,3.9125675)"><path
       d="m 2533.5,464.167 c 0,-10.862 8.81,-19.667 19.67,-19.667 h 441.66 c 10.87,0 19.67,8.805 19.67,19.667 v 78.663 c 0,10.86 -8.8,19.67 -19.67,19.67 h -441.66 c -10.86,0 -19.67,-8.81 -19.67,-19.67 z"
       stroke="#8ca198"
       stroke-width="4.58333"
       stroke-miterlimit="8"
       fill="#f2f8f5"
       fill-rule="evenodd"
       id="path46" /><text
       fill="#5f968e"
       font-family="Calibri, Calibri_MSFontService, sans-serif"
       font-weight="400"
       font-size="83px"
       id="text46"
       x="2652.6611"
       y="522.99365">integer</text></g><g
     id="g98"
     transform="translate(-2.3333333,1.7459008)"><path
       d="m 2533.5,627.33 c 0,-10.95 8.88,-19.83 19.83,-19.83 h 441.34 c 10.95,0 19.83,8.88 19.83,19.83 v 79.34 c 0,10.95 -8.88,19.83 -19.83,19.83 h -441.34 c -10.95,0 -19.83,-8.88 -19.83,-19.83 z"
       stroke="#8ca198"
       stroke-width="4.58333"
       stroke-miterlimit="8"
       fill="#f2f8f5"
       fill-rule="evenodd"
       id="path47" /><g
       id="g97"><text
         fill="#5f968e"
         font-family="Calibri, Calibri_MSFontService, sans-serif"
         font-weight="400"
         font-size="83px"
         id="text47"
         x="2652.6611"
         y="686.49365">integer</text></g></g><g
     id="g99"
     transform="translate(-2.3333333,2.0792308)"><path
       d="m 2533.5,788.17 c 0,-10.86 8.81,-19.67 19.67,-19.67 h 441.66 c 10.87,0 19.67,8.81 19.67,19.67 v 78.66 c 0,10.87 -8.8,19.67 -19.67,19.67 h -441.66 c -10.86,0 -19.67,-8.8 -19.67,-19.67 z"
       stroke="#8ca198"
       stroke-width="4.58333"
       stroke-miterlimit="8"
       fill="#f2f8f5"
       fill-rule="evenodd"
       id="path48" /><text
       fill="#5f968e"
       font-family="Calibri, Calibri_MSFontService, sans-serif"
       font-weight="400"
       font-size="83px"
       id="text48"
       x="2678.5581"
       y="846.99365">string</text></g><g
     id="g100"
     transform="translate(-2.3333333,3.4125675)"><path
       d="m 2533.5,948.17 c 0,-10.86 8.81,-19.67 19.67,-19.67 h 441.66 c 10.87,0 19.67,8.81 19.67,19.67 v 78.66 c 0,10.86 -8.8,19.67 -19.67,19.67 h -441.66 c -10.86,0 -19.67,-8.81 -19.67,-19.67 z"
       stroke="#8ca198"
       stroke-width="4.58333"
       stroke-miterlimit="8"
       fill="#f2f8f5"
       fill-rule="evenodd"
       id="path49" /><text
       fill="#5f968e"
       font-family="Calibri, Calibri_MSFontService, sans-serif"
       font-weight="400"
       font-size="83px"
       id="text49"
       x="2652.6611"
       y="1006.9937">integer</text></g><g
     id="g80"
     transform="translate(-2.3333333,1.2459008)"><path
       d="m 2533.5,144.167 c 0,-10.862 8.81,-19.667 19.67,-19.667 h 441.66 c 10.87,0 19.67,8.805 19.67,19.667 v 78.666 c 0,10.862 -8.8,19.667 -19.67,19.667 h -441.66 c -10.86,0 -19.67,-8.805 -19.67,-19.667 z"
       stroke="#446d67"
       stroke-width="4.58333"
       stroke-miterlimit="8"
       fill="#bed6d2"
       fill-rule="evenodd"
       id="path44" /><text
       fill="#e05858"
       font-family="Calibri, Calibri_MSFontService, sans-serif"
       font-weight="400"
       font-size="83px"
       id="text50"
       x="2573.7139"
       y="204.33105">Object Type</text></g><g
     id="g101"
     transform="translate(-2.3333333,3.2459008)"><path
       d="m 2533.5,1109.17 c 0,-10.86 8.81,-19.67 19.67,-19.67 h 441.66 c 10.87,0 19.67,8.81 19.67,19.67 v 78.66 c 0,10.87 -8.8,19.67 -19.67,19.67 h -441.66 c -10.86,0 -19.67,-8.8 -19.67,-19.67 z"
       stroke="#8ca198"
       stroke-width="4.58333"
       stroke-miterlimit="8"
       fill="#f2f8f5"
       fill-rule="evenodd"
       id="path50" /><text
       fill="#5f968e"
       font-family="Calibri, Calibri_MSFontService, sans-serif"
       font-weight="400"
       font-size="83px"
       id="text51"
       x="2652.6611"
       y="1167.9937">integer</text></g><path
     d="m 3066.5,307.24623 c 0,-10.862 8.81,-19.667 19.67,-19.667 h 442.66 c 10.86,0 19.67,8.805 19.67,19.667 v 78.666 c 0,10.862 -8.81,19.667 -19.67,19.667 h -442.66 c -10.86,0 -19.67,-8.805 -19.67,-19.667 z"
     stroke="#8ca198"
     stroke-width="4.58333"
     stroke-miterlimit="8"
     fill="#f2f8f5"
     fill-rule="evenodd"
     id="path52" /><g
     id="g102"
     transform="translate(0,0.91256744)"><path
       d="m 3066.5,467.167 c 0,-10.862 8.81,-19.667 19.67,-19.667 h 442.66 c 10.86,0 19.67,8.805 19.67,19.667 v 78.663 c 0,10.86 -8.81,19.67 -19.67,19.67 h -442.66 c -10.86,0 -19.67,-8.81 -19.67,-19.67 z"
       stroke="#8ca198"
       stroke-width="4.58333"
       stroke-miterlimit="8"
       fill="#f2f8f5"
       fill-rule="evenodd"
       id="path53" /><text
       fill="#5f968e"
       font-family="Calibri, Calibri_MSFontService, sans-serif"
       font-weight="400"
       font-size="83px"
       id="text53"
       x="3215.28"
       y="528.89136">µg/µl</text></g><g
     id="g103"
     transform="translate(0,-1.2540992)"><path
       d="m 3066.5,630.17 c 0,-10.86 8.81,-19.67 19.67,-19.67 h 442.66 c 10.86,0 19.67,8.81 19.67,19.67 v 78.66 c 0,10.86 -8.81,19.67 -19.67,19.67 h -442.66 c -10.86,0 -19.67,-8.81 -19.67,-19.67 z"
       stroke="#8ca198"
       stroke-width="4.58333"
       stroke-miterlimit="8"
       fill="#f2f8f5"
       fill-rule="evenodd"
       id="path54" /><text
       fill="#5f968e"
       font-family="Calibri, Calibri_MSFontService, sans-serif"
       font-weight="400"
       font-size="83px"
       id="text54"
       x="3215.28"
       y="691.89136">µg/µl</text></g><path
     d="m 3066.5,789.90923 c 0,-10.95 8.88,-19.83 19.83,-19.83 h 442.34 c 10.95,0 19.83,8.88 19.83,19.83 v 79.34 c 0,10.95 -8.88,19.83 -19.83,19.83 h -442.34 c -10.95,0 -19.83,-8.88 -19.83,-19.83 z"
     stroke="#8ca198"
     stroke-width="4.58333"
     stroke-miterlimit="8"
     fill="#f2f8f5"
     fill-rule="evenodd"
     id="path55" /><g
     id="g104"
     transform="translate(0,0.41256744)"><path
       d="m 3066.5,951.17 c 0,-10.86 8.81,-19.67 19.67,-19.67 h 442.66 c 10.86,0 19.67,8.81 19.67,19.67 v 78.66 c 0,10.86 -8.81,19.67 -19.67,19.67 h -442.66 c -10.86,0 -19.67,-8.81 -19.67,-19.67 z"
       stroke="#8ca198"
       stroke-width="4.58333"
       stroke-miterlimit="8"
       fill="#f2f8f5"
       fill-rule="evenodd"
       id="path56" /><text
       fill="#5f968e"
       font-family="Calibri, Calibri_MSFontService, sans-serif"
       font-weight="400"
       font-size="83px"
       id="text56"
       x="3215.28"
       y="1012.8914">µg/µl</text></g><g
     id="g79"
     transform="translate(0,-0.75409923)"><path
       d="m 3066.5,146.333 c 0,-10.953 8.88,-19.833 19.83,-19.833 h 442.34 c 10.95,0 19.83,8.88 19.83,19.833 v 79.333 c 0,10.954 -8.88,19.834 -19.83,19.834 h -442.34 c -10.95,0 -19.83,-8.88 -19.83,-19.834 z"
       stroke="#446d67"
       stroke-width="4.58333"
       stroke-miterlimit="8"
       fill="#bed6d2"
       fill-rule="evenodd"
       id="path51" /><text
       fill="#e05858"
       font-family="Calibri, Calibri_MSFontService, sans-serif"
       font-weight="400"
       font-size="83px"
       id="text57"
       x="3233.5173"
       y="212.50488">Unit</text></g><g
     id="g105"
     transform="translate(0,0.24590077)"><path
       d="m 3066.5,1112.17 c 0,-10.86 8.81,-19.67 19.67,-19.67 h 442.66 c 10.86,0 19.67,8.81 19.67,19.67 v 78.66 c 0,10.86 -8.81,19.67 -19.67,19.67 h -442.66 c -10.86,0 -19.67,-8.81 -19.67,-19.67 z"
       stroke="#8ca198"
       stroke-width="4.58333"
       stroke-miterlimit="8"
       fill="#f2f8f5"
       fill-rule="evenodd"
       id="path57" /><text
       fill="#5f968e"
       font-family="Calibri, Calibri_MSFontService, sans-serif"
       font-weight="400"
       font-size="83px"
       id="text58"
       x="3215.28"
       y="1173.8914">µg/µl</text></g><path
     style="fill:none;stroke:#e05858;stroke-width:4.5;stroke-dasharray:none;stroke-opacity:1;marker-start:url(#ConcaveTriangle)"
     d="m 126.80133,281.43709 c 42.19397,-50.08933 84.38794,-100.17866 174.59095,-148.59565 90.203,-48.416997 228.41503,-95.161651 371.10779,-90.48601 142.69277,4.67564 289.86626,60.77158 382.58443,117.95125 92.7182,57.17968 130.9812,115.44315 169.2441,173.70657"
     id="path114"
     inkscape:path-effect="#path-effect114"
     inkscape:original-d="M 126.80133,281.43709 C 168.9953,231.34776 211.18927,181.25843 253.38324,131.1691 391.59528,84.424442 529.80731,37.67979 668.01935,-9.0648686 815.19284,47.031071 962.36633,103.12701 1109.5398,159.22294 c 38.2629,58.26343 76.5259,116.52687 114.7888,174.79031"
     sodipodi:nodetypes="ccccc"
     transform="translate(0,0.24590077)" /><path
     style="fill:none;stroke:#e05858;stroke-width:4.5;stroke-dasharray:none;stroke-opacity:1;marker-start:url(#ConcaveTriangle)"
     d="m 126.80133,281.43709 c 49.41031,-44.9348 98.82062,-89.86961 171.24051,-117.15305 72.41989,-27.28343 167.84935,-36.91551 273.17181,-24.76581 105.32245,12.1497 220.53785,46.08117 307.65052,107.96437 87.11268,61.88321 146.12253,151.71809 205.13243,241.553"
     id="path117"
     inkscape:path-effect="#path-effect118"
     inkscape:original-d="m 126.80133,281.43709 c 49.41031,-44.9348 98.82062,-89.86961 148.23093,-134.80441 95.42947,-9.63207 190.85893,-19.26415 286.28841,-28.89622 115.21543,33.93148 230.43083,67.86294 345.64628,101.79442 59.00989,89.83493 118.01975,179.66982 177.02965,269.50472"
     sodipodi:nodetypes="ccccc"
     transform="translate(140.71854,4.8849736)" /><path
     style="fill:none;stroke:#e05858;stroke-width:4.5;stroke-dasharray:none;stroke-opacity:1;marker-start:url(#ConcaveTriangle)"
     d="m 129.12087,286.84934 c 37.29718,-19.93536 74.59434,-39.87071 136.57632,-45.89173 61.98198,-6.02103 148.64875,1.87229 223.30178,22.52696 74.65303,20.65467 137.29229,54.07069 200.95186,121.495 63.65957,67.42431 128.33942,168.85688 193.01929,270.28948"
     id="path118"
     inkscape:path-effect="#path-effect120"
     inkscape:original-d="m 129.12087,286.84934 c 37.29718,-19.93536 74.59434,-39.87071 111.89152,-59.80607 86.66678,7.89332 173.33355,15.78663 260.00033,23.67994 62.63928,33.41603 125.27854,66.83205 187.91781,100.24808 64.67987,101.43259 129.35972,202.86516 194.03959,304.29776"
     sodipodi:nodetypes="ccccc"
     transform="translate(341.74503,4.8849736)" /><path
     style="fill:none;stroke:#e05858;stroke-width:4.5;stroke-dasharray:none;stroke-opacity:1;marker-start:url(#ConcaveTriangle)"
     d="M -110.56456,824.98179 C -45.432944,791.12921 19.698639,757.27665 99.979199,722.648 180.25976,688.01936 275.68919,652.61467 373.5376,624.8168 c 97.8484,-27.79787 198.11568,-47.9889 279.55836,-59.10668 81.44269,-11.11777 144.06074,-13.16229 206.6788,-15.2068"
     id="path120"
     inkscape:path-effect="#path-effect122"
     inkscape:original-d="M -110.56456,824.98179 C -45.432944,791.12921 19.69864,757.27665 84.830271,723.42406 180.25976,688.01936 275.68919,652.61467 371.11868,617.20997 471.386,597.01893 571.65328,576.8279 671.92059,556.63686 c 62.61806,-2.04452 125.23611,-4.08903 187.85417,-6.13354"
     sodipodi:nodetypes="ccccc"
     transform="translate(366.48675,266.21941)" /><path
     style="fill:none;stroke:#e05858;stroke-width:4.5;stroke-dasharray:none;stroke-opacity:1;marker-start:url(#ConcaveTriangle)"
     d="M -112.8841,821.1159 C -52.133826,797.31464 4.9494147,774.95009 98.280602,750.892 191.61179,726.83391 299.93904,706.56041 400.23112,701.70883 c 100.29208,-4.85158 185.59004,7.02112 270.88801,18.89383"
     id="path124"
     inkscape:path-effect="#path-effect125"
     inkscape:original-d="M -112.8841,821.1159 C -52.133827,797.31464 4.9494156,774.95009 69.366695,749.71214 191.61179,726.83391 299.93904,706.56041 415.22523,684.98454 c 85.29797,11.87271 170.59593,23.74541 255.8939,35.61812"
     sodipodi:nodetypes="cccc"
     transform="translate(555.14238,272.40484)" /><g
     id="g1"
     transform="matrix(1.4630039,0,0,1.4630039,-1967.9682,-114.42207)"
     style="stroke-width:3.75938847;stroke-dasharray:none"><rect
       style="fill:#bfdccf;fill-opacity:1;stroke:#7f7f7f;stroke-width:3.75938847;stroke-linejoin:round;stroke-dasharray:none;stroke-opacity:1"
       id="rect1"
       width="65.150116"
       height="65.110222"
       x="1969.4708"
       y="712.68188"
       rx="9.9709558"
       ry="10.623306" /><path
       d="m 2017.494,756.17973 -11.1521,-11.56717 9.8271,-3.67246 c 0.5046,-0.17994 0.7731,-0.75029 0.5997,-1.27393 -0.097,-0.29233 -0.3181,-0.52198 -0.5997,-0.62233 l -28.3163,-9.79699 c -0.1016,-0.0347 -0.2078,-0.0521 -0.3147,-0.0515 v 0 c -0.5305,0.0117 -0.9512,0.46751 -0.9398,1.01792 0,0.10212 0.019,0.20319 0.051,0.2997 l 9.4186,29.4137 c 0.1777,0.52209 0.7297,0.79574 1.2328,0.61123 0.2753,-0.10097 0.4917,-0.32564 0.589,-0.61123 l 3.5444,-10.20939 11.141,11.56147 z"
       fill="#e05858"
       id="path1"
       style="stroke-width:3.75938847;stroke-dasharray:none" /></g><path
     style="fill:none;stroke:#e05858;stroke-width:4.5;stroke-dasharray:none;stroke-opacity:1;marker-start:url(#ConcaveTriangle)"
     d="m -115.97682,821.88908 c 77.244764,-8.59541 149.82684,-16.67197 243.28967,-17.08189 93.46283,-0.40993 186.52456,6.94013 285.56456,14.76236"
     id="path125"
     inkscape:path-effect="#path-effect127"
     inkscape:original-d="m -115.97682,821.88908 c 77.244763,-8.59541 149.82684,-16.67197 231.73424,-25.78621 105.01826,8.29439 297.11999,23.46668 297.11999,23.46668"
     sodipodi:nodetypes="ccc"
     transform="translate(813.3841,324.981)" /><g
     id="g221"
     transform="matrix(1.4630039,0,0,1.4630039,-2040.647,46.399125)"
     style="stroke-width:3.75938847;stroke-dasharray:none"><rect
       style="fill:#bfdccf;fill-opacity:1;stroke:#7f7f7f;stroke-width:3.75938847;stroke-linejoin:round;stroke-dasharray:none;stroke-opacity:1"
       id="rect159"
       width="65.150116"
       height="65.110222"
       x="1969.4708"
       y="712.68188"
       rx="9.9709558"
       ry="10.623306" /><path
       d="m 2017.494,756.17973 -11.1521,-11.56717 9.8271,-3.67246 c 0.5046,-0.17994 0.7731,-0.75029 0.5997,-1.27393 -0.097,-0.29233 -0.3181,-0.52198 -0.5997,-0.62233 l -28.3163,-9.79699 c -0.1016,-0.0347 -0.2078,-0.0521 -0.3147,-0.0515 v 0 c -0.5305,0.0117 -0.9512,0.46751 -0.9398,1.01792 0,0.10212 0.019,0.20319 0.051,0.2997 l 9.4186,29.4137 c 0.1777,0.52209 0.7297,0.79574 1.2328,0.61123 0.2753,-0.10097 0.4917,-0.32564 0.589,-0.61123 l 3.5444,-10.20939 11.141,11.56147 z"
       fill="#e05858"
       id="path145"
       style="stroke-width:3.75938847;stroke-dasharray:none" /></g><g
     id="g9"
     transform="matrix(1.4630039,0,0,1.4630039,-2158.1702,-207.20353)"
     style="stroke-width:3.75938847;stroke-dasharray:none"><rect
       style="fill:#bfdccf;fill-opacity:1;stroke:#7f7f7f;stroke-width:3.75938847;stroke-linejoin:round;stroke-dasharray:none;stroke-opacity:1"
       id="rect4"
       width="65.150116"
       height="65.110222"
       x="1969.4708"
       y="712.68188"
       rx="9.9709558"
       ry="10.623306" /><path
       d="m 2017.494,756.17973 -11.1521,-11.56717 9.8271,-3.67246 c 0.5046,-0.17994 0.7731,-0.75029 0.5997,-1.27393 -0.097,-0.29233 -0.3181,-0.52198 -0.5997,-0.62233 l -28.3163,-9.79699 c -0.1016,-0.0347 -0.2078,-0.0521 -0.3147,-0.0515 v 0 c -0.5305,0.0117 -0.9512,0.46751 -0.9398,1.01792 0,0.10212 0.019,0.20319 0.051,0.2997 l 9.4186,29.4137 c 0.1777,0.52209 0.7297,0.79574 1.2328,0.61123 0.2753,-0.10097 0.4917,-0.32564 0.589,-0.61123 l 3.5444,-10.20939 11.141,11.56147 z"
       fill="#e05858"
       id="path9"
       style="stroke-width:3.75938847;stroke-dasharray:none" /></g><g
     id="g22"
     transform="matrix(1.4630039,0,0,1.4630039,-2130.3357,-823.42704)"
     style="stroke-width:3.75938847;stroke-dasharray:none"><rect
       style="fill:#bfdccf;fill-opacity:1;stroke:#7f7f7f;stroke-width:3.75938847;stroke-linejoin:round;stroke-dasharray:none;stroke-opacity:1"
       id="rect21"
       width="65.150116"
       height="65.110222"
       x="1969.4708"
       y="712.68188"
       rx="9.9709558"
       ry="10.623306" /><path
       d="m 2017.494,756.17973 -11.1521,-11.56717 9.8271,-3.67246 c 0.5046,-0.17994 0.7731,-0.75029 0.5997,-1.27393 -0.097,-0.29233 -0.3181,-0.52198 -0.5997,-0.62233 l -28.3163,-9.79699 c -0.1016,-0.0347 -0.2078,-0.0521 -0.3147,-0.0515 v 0 c -0.5305,0.0117 -0.9512,0.46751 -0.9398,1.01792 0,0.10212 0.019,0.20319 0.051,0.2997 l 9.4186,29.4137 c 0.1777,0.52209 0.7297,0.79574 1.2328,0.61123 0.2753,-0.10097 0.4917,-0.32564 0.589,-0.61123 l 3.5444,-10.20939 11.141,11.56147 z"
       fill="#e05858"
       id="path22"
       style="stroke-width:3.75938847;stroke-dasharray:none" /></g><g
     id="g40"
     transform="matrix(1.4630039,0,0,1.4630039,-2207.6536,-931.67207)"
     style="stroke-width:3.75938847;stroke-dasharray:none"><rect
       style="fill:#bfdccf;fill-opacity:1;stroke:#7f7f7f;stroke-width:3.75938847;stroke-linejoin:round;stroke-dasharray:none;stroke-opacity:1"
       id="rect34"
       width="65.150116"
       height="65.110222"
       x="1969.4708"
       y="712.68188"
       rx="9.9709558"
       ry="10.623306" /><path
       d="m 2017.494,756.17973 -11.1521,-11.56717 9.8271,-3.67246 c 0.5046,-0.17994 0.7731,-0.75029 0.5997,-1.27393 -0.097,-0.29233 -0.3181,-0.52198 -0.5997,-0.62233 l -28.3163,-9.79699 c -0.1016,-0.0347 -0.2078,-0.0521 -0.3147,-0.0515 v 0 c -0.5305,0.0117 -0.9512,0.46751 -0.9398,1.01792 0,0.10212 0.019,0.20319 0.051,0.2997 l 9.4186,29.4137 c 0.1777,0.52209 0.7297,0.79574 1.2328,0.61123 0.2753,-0.10097 0.4917,-0.32564 0.589,-0.61123 l 3.5444,-10.20939 11.141,11.56147 z"
       fill="#e05858"
       id="path40"
       style="stroke-width:3.75938847;stroke-dasharray:none" /></g><g
     id="g44"
     transform="matrix(1.4630039,0,0,1.4630039,-2290.3837,-1038.3708)"
     style="stroke-width:3.75938847;stroke-dasharray:none"><rect
       style="fill:#bfdccf;fill-opacity:1;stroke:#7f7f7f;stroke-width:3.75938847;stroke-linejoin:round;stroke-dasharray:none;stroke-opacity:1"
       id="rect40"
       width="65.150116"
       height="65.110222"
       x="1969.4708"
       y="712.68188"
       rx="9.9709558"
       ry="10.623306" /><path
       d="m 2017.494,756.17973 -11.1521,-11.56717 9.8271,-3.67246 c 0.5046,-0.17994 0.7731,-0.75029 0.5997,-1.27393 -0.097,-0.29233 -0.3181,-0.52198 -0.5997,-0.62233 l -28.3163,-9.79699 c -0.1016,-0.0347 -0.2078,-0.0521 -0.3147,-0.0515 v 0 c -0.5305,0.0117 -0.9512,0.46751 -0.9398,1.01792 0,0.10212 0.019,0.20319 0.051,0.2997 l 9.4186,29.4137 c 0.1777,0.52209 0.7297,0.79574 1.2328,0.61123 0.2753,-0.10097 0.4917,-0.32564 0.589,-0.61123 l 3.5444,-10.20939 11.141,11.56147 z"
       fill="#e05858"
       id="path43"
       style="stroke-width:3.75938847;stroke-dasharray:none" /></g></svg>
